<?xml version="1.0" encoding="UTF-8"?>
<!DOCTYPE svg PUBLIC "-//W3C//DTD SVG 1.1//EN" "http://www.w3.org/Graphics/SVG/1.1/DTD/svg11.dtd">
<!-- Creator: CorelDRAW 2021 (64-Bit) -->
<svg xmlns="http://www.w3.org/2000/svg" xml:space="preserve" width="300mm" height="150mm" version="1.1" style="shape-rendering:geometricPrecision; text-rendering:geometricPrecision; image-rendering:optimizeQuality; fill-rule:evenodd; clip-rule:evenodd"
viewBox="0 0 30000 15000"
 xmlns:xlink="http://www.w3.org/1999/xlink"
 xmlns:xodm="http://www.corel.com/coreldraw/odm/2003">
 <defs>
  <style type="text/css">
   <![CDATA[
    .fil0 {fill:#A42C21;fill-rule:nonzero}
   ]]>
  </style>
 </defs>
 <g id="Layer_x0020_1">
  <metadata id="CorelCorpID_0Corel-Layer"/>
  <path class="fil0" d="M13296.66 2362.88c0,620.93 -216.21,1270.4 -648.6,1948.43 -432.39,678.03 -1029.33,1268.63 -1790.79,1771.79 -761.48,503.17 -1547.83,818.99 -2359.04,947.46 -466.83,877.86 -803.56,1491.66 -1010.19,1841.38l-241.07 363.99c1515.29,349.72 2770.38,881.43 3765.26,1595.15 505.1,363.99 845.66,810.06 1021.68,1338.21 91.84,271.21 137.75,503.16 137.75,695.87 0,192.7 -40.17,355.07 -120.53,487.11 -80.36,132.03 -174.11,223.03 -281.25,272.99 -107.14,49.96 -183.67,74.94 -229.58,74.94 -45.93,0 -68.89,-17.84 -68.89,-53.53 0,-35.68 44.01,-140.96 132.02,-315.82 88,-174.85 132.01,-380.05 132.01,-615.57 0,-235.53 -53.57,-496.03 -160.71,-781.52 -107.15,-285.48 -306.12,-547.77 -596.93,-786.87 -290.81,-239.09 -694.51,-463.91 -1211.08,-674.45 -516.58,-210.55 -964.28,-360.43 -1343.11,-449.64 -378.82,-89.22 -885.83,-190.92 -1521.02,-305.12 -650.51,849.32 -1327.79,1431 -2031.87,1745.03 -420.92,192.7 -794,289.06 -1119.25,289.06 -325.25,0 -614.15,-60.67 -866.7,-182 -436.22,-199.84 -654.33,-503.17 -654.33,-909.98 0,-406.82 286.98,-763.68 860.96,-1070.57 650.5,-356.86 1530.59,-535.29 2640.28,-535.29 397.96,0 757.64,28.55 1079.07,85.65 344.38,-499.6 746.16,-1188.33 1205.34,-2066.2 -45.91,0 -88.01,0 -126.27,0 -482.14,0 -929.83,-74.94 -1343.1,-224.82 -413.26,-149.88 -742.34,-353.29 -987.24,-610.22 -321.42,-335.45 -482.14,-713.72 -482.14,-1134.81 0,-221.25 59.32,-460.34 177.94,-717.28 118.62,-256.94 382.65,-517.44 792.08,-781.51 409.44,-264.08 927.93,-463.92 1555.47,-599.52 99.49,-21.41 183.68,-32.12 252.55,-32.12 68.87,0 110.97,17.84 126.27,53.53 15.31,35.68 -15.3,67.8 -91.83,96.35 -76.53,28.55 -164.54,49.96 -264.02,64.23 -329.09,35.69 -635.21,139.18 -918.37,310.47 -489.79,292.62 -830.35,742.26 -1021.67,1348.92 -45.92,142.74 -68.88,280.13 -68.88,412.17 0,132.03 26.79,290.83 80.36,476.4 53.57,185.56 168.37,376.48 344.38,572.75 176.02,196.27 415.18,333.66 717.47,412.17 302.29,78.51 566.32,117.76 792.09,117.76 225.75,0 434.3,-10.7 625.63,-32.11l975.75 -2291.02c673.46,-1612.99 1477.03,-2605.05 2410.69,-2976.18 244.89,-92.78 484.05,-139.18 717.46,-139.18 233.42,0 455.36,69.59 665.81,208.77 210.46,139.17 323.35,308.68 338.65,508.52 7.66,85.64 11.49,167.72 11.49,246.23zm-482.14 10.7c0,-271.21 -133.93,-406.81 -401.79,-406.81 -390.31,0 -864.79,317.6 -1423.46,952.8 -436.21,506.74 -855.21,1118.75 -1257,1836.03 -401.78,717.28 -759.55,1379.25 -1073.32,1985.9 1063.76,-221.25 2022.29,-765.45 2875.6,-1632.61 853.31,-867.17 1279.97,-1778.93 1279.97,-2735.31zm-6359.63 7279.87c-375,-78.51 -761.48,-117.76 -1159.43,-117.76 -397.96,0 -807.4,53.53 -1228.31,160.58 -880.09,214.12 -1396.66,517.44 -1549.73,909.99 -30.6,71.37 -45.91,139.17 -45.91,203.4 0,185.57 109.06,337.23 327.16,455 218.11,117.76 457.27,176.64 717.47,176.64 359.69,0 749.99,-92.78 1170.91,-278.35 635.19,-285.48 1224.47,-788.65 1767.84,-1509.5z"/>
  <path id="_1" class="fil0" d="M12688.23 6334.69c-107.14,85.64 -225.75,128.47 -355.85,128.47 -130.1,0 -233.42,-42.83 -309.96,-128.47 -76.52,-85.65 -107.14,-189.14 -91.83,-310.47 22.96,-121.33 88.02,-224.82 195.15,-310.46 107.14,-85.65 225.77,-128.47 355.87,-128.47 130.1,0 235.33,42.82 315.69,128.47 80.35,85.64 109.05,189.13 86.09,310.46 -22.96,121.33 -88.01,224.82 -195.16,310.47zm-1124.98 3928.98c145.4,0 298.46,-67.8 459.17,-203.4 283.17,-264.08 642.86,-802.93 1079.08,-1616.56 53.57,-107.06 107.14,-139.18 160.71,-96.35 15.31,14.27 22.96,37.47 22.96,69.58 0,32.12 -30.61,110.63 -91.84,235.53 -61.22,124.9 -116.71,237.31 -166.45,337.23 -49.74,99.92 -145.4,262.29 -286.98,487.11 -141.59,224.82 -269.77,397.89 -384.57,519.22 -313.77,335.45 -610.33,503.17 -889.65,503.17 -279.34,0 -480.23,-78.51 -602.68,-235.53 -122.44,-157.01 -183.67,-331.87 -183.67,-524.57 0,-192.71 49.75,-403.25 149.23,-631.64l734.69 -1745.03c15.31,-42.82 22.96,-99.92 22.96,-171.29 0,-71.37 -45.92,-164.15 -137.75,-278.35l631.36 -10.7c176.03,0 279.34,30.33 309.96,91 30.6,60.66 7.64,155.23 -68.89,283.7l-918.35 2001.96c-130.1,264.08 -195.15,488.89 -195.15,674.46 0,206.98 118.62,310.46 355.86,310.46z"/>
  <path id="_2" class="fil0" d="M13744.35 8433c-7.65,28.55 -42.09,126.69 -103.31,294.41 -61.23,167.72 -112.89,328.31 -154.98,481.75 -42.1,153.45 -63.13,306.9 -63.13,460.35 0,153.45 38.26,296.19 114.78,428.23 76.54,132.03 198.99,198.05 367.36,198.05 275.5,0 543.35,-173.07 803.56,-519.22 260.2,-346.15 535.7,-786.87 826.51,-1322.16 61.23,-99.92 118.63,-139.17 172.2,-117.76 38.27,28.55 45.91,66.02 22.96,112.41 -22.96,46.39 -70.79,146.31 -143.5,299.76 -72.7,153.45 -126.27,260.5 -160.71,321.17 -34.44,60.67 -95.66,167.72 -183.67,321.17 -88.01,153.45 -164.54,267.64 -229.58,342.58 -65.06,74.94 -153.07,171.29 -264.03,289.06 -110.97,117.76 -216.2,205.19 -315.69,262.29 -267.86,157.01 -520.41,235.52 -757.65,235.52 -237.24,0 -420.91,-48.17 -551.01,-144.53 -130.1,-96.35 -208.55,-199.83 -235.33,-310.46 -26.79,-110.63 -40.18,-208.76 -40.18,-294.41 0,-85.64 3.83,-196.27 11.48,-331.87 22.96,-228.39 70.79,-449.64 143.49,-663.76 72.7,-214.11 112.88,-335.44 120.54,-363.99 176.01,-592.38 426.65,-1238.29 751.9,-1937.73 325.25,-699.44 600.77,-1225.8 826.52,-1579.09 225.77,-353.29 403.71,-594.16 533.8,-722.63 260.2,-256.94 516.57,-385.41 769.13,-385.41 176.01,0 294.64,117.77 355.86,353.29 7.65,42.82 11.48,96.35 11.48,160.59 0,242.66 -91.84,549.55 -275.51,920.69 -658.16,1363.19 -1442.58,2433.76 -2353.29,3211.7zm91.83 -342.58c390.31,-371.13 776.78,-838.61 1159.44,-1402.45 382.64,-563.83 663.89,-1043.8 843.74,-1439.91 179.84,-396.11 269.76,-665.54 269.76,-808.28 0,-142.74 -26.78,-214.11 -80.35,-214.11 -76.53,0 -221.94,140.95 -436.23,422.87 -214.28,281.92 -503.18,788.65 -866.7,1520.21 -363.51,731.55 -660.06,1372.11 -889.66,1921.67z"/>
  <path id="_3" class="fil0" d="M16051.72 8850.52c-107.14,242.67 -160.71,513.88 -160.71,813.64 0,199.84 47.83,358.64 143.5,476.4 95.66,117.76 231.5,176.64 407.52,176.64 696.43,0 1327.79,-610.22 1894.12,-1830.67 53.57,-114.19 118.61,-164.15 195.14,-149.88 30.61,7.14 45.93,24.98 45.93,53.53 0,28.55 -86.11,215.9 -258.29,562.05 -172.2,346.15 -346.31,626.28 -522.32,840.39 -390.3,499.6 -872.44,749.4 -1446.42,749.4 -306.11,0 -566.31,-92.78 -780.6,-278.35 -214.28,-185.56 -321.42,-438.93 -321.42,-760.1 0,-321.17 82.26,-661.97 246.81,-1022.39 164.54,-360.43 388.38,-695.87 671.54,-1006.34 283.17,-310.46 608.41,-537.07 975.76,-679.81 176.02,-71.37 344.39,-107.06 505.1,-107.06 160.71,0 309.94,42.83 447.7,128.47 130.1,99.92 195.14,210.55 195.14,331.88 0,428.23 -275.5,838.61 -826.52,1231.15 -168.36,121.33 -405.6,230.18 -711.73,326.53 -306.11,96.35 -539.53,144.52 -700.25,144.52zm1928.56 -1712.91c0,-142.74 -61.23,-214.11 -183.67,-214.11 -214.29,0 -539.54,246.23 -975.75,738.69 -260.21,299.76 -489.8,635.21 -688.78,1006.34 130.11,0 319.52,-42.83 568.24,-128.47 248.72,-85.65 464.92,-199.84 648.59,-342.58 420.91,-335.45 631.37,-688.74 631.37,-1059.87z"/>
  <path id="_4" class="fil0" d="M19001.96 8433c-7.66,28.55 -42.1,126.69 -103.32,294.41 -61.22,167.72 -112.89,328.31 -154.97,481.75 -42.1,153.45 -63.14,306.9 -63.14,460.35 0,153.45 38.26,296.19 114.79,428.23 76.54,132.03 198.98,198.05 367.35,198.05 275.5,0 543.35,-173.07 803.56,-519.22 260.2,-346.15 535.7,-786.87 826.52,-1322.16 61.22,-99.92 118.62,-139.17 172.19,-117.76 38.27,28.55 45.92,66.02 22.96,112.41 -22.96,46.39 -70.79,146.31 -143.49,299.76 -72.7,153.45 -126.27,260.5 -160.71,321.17 -34.45,60.67 -95.66,167.72 -183.67,321.17 -88.02,153.45 -164.55,267.64 -229.59,342.58 -65.06,74.94 -153.07,171.29 -264.03,289.06 -110.97,117.76 -216.2,205.19 -315.69,262.29 -267.85,157.01 -520.41,235.52 -757.65,235.52 -237.24,0 -420.91,-48.17 -551.01,-144.53 -130.1,-96.35 -208.55,-199.83 -235.33,-310.46 -26.79,-110.63 -40.18,-208.76 -40.18,-294.41 0,-85.64 3.83,-196.27 11.48,-331.87 22.96,-228.39 70.8,-449.64 143.5,-663.76 72.7,-214.11 112.88,-335.44 120.53,-363.99 176.02,-592.38 426.65,-1238.29 751.9,-1937.73 325.26,-699.44 600.77,-1225.8 826.53,-1579.09 225.77,-353.29 403.7,-594.16 533.8,-722.63 260.2,-256.94 516.57,-385.41 769.12,-385.41 176.02,0 294.64,117.77 355.86,353.29 7.65,42.82 11.48,96.35 11.48,160.59 0,242.66 -91.84,549.55 -275.51,920.69 -658.15,1363.19 -1442.58,2433.76 -2353.28,3211.7zm91.83 -342.58c390.31,-371.13 776.78,-838.61 1159.43,-1402.45 382.64,-563.83 663.89,-1043.8 843.74,-1439.91 179.84,-396.11 269.77,-665.54 269.77,-808.28 0,-142.74 -26.79,-214.11 -80.36,-214.11 -76.53,0 -221.94,140.95 -436.22,422.87 -214.29,281.92 -503.18,788.65 -866.71,1520.21 -363.51,731.55 -660.06,1372.11 -889.65,1921.67z"/>
  <path id="_5" class="fil0" d="M21309.33 8850.52c-107.15,242.67 -160.72,513.88 -160.72,813.64 0,199.84 47.84,358.64 143.51,476.4 95.65,117.76 231.49,176.64 407.52,176.64 696.42,0 1327.79,-610.22 1894.11,-1830.67 53.57,-114.19 118.62,-164.15 195.14,-149.88 30.62,7.14 45.93,24.98 45.93,53.53 0,28.55 -86.1,215.9 -258.29,562.05 -172.2,346.15 -346.3,626.28 -522.32,840.39 -390.3,499.6 -872.43,749.4 -1446.41,749.4 -306.12,0 -566.32,-92.78 -780.6,-278.35 -214.29,-185.56 -321.43,-438.93 -321.43,-760.1 0,-321.17 82.27,-661.97 246.81,-1022.39 164.54,-360.43 388.39,-695.87 671.55,-1006.34 283.16,-310.46 608.41,-537.07 975.76,-679.81 176.01,-71.37 344.38,-107.06 505.09,-107.06 160.72,0 309.95,42.83 447.7,128.47 130.1,99.92 195.15,210.55 195.15,331.88 0,428.23 -275.51,838.61 -826.53,1231.15 -168.36,121.33 -405.6,230.18 -711.72,326.53 -306.12,96.35 -539.54,144.52 -700.25,144.52zm1928.55 -1712.91c0,-142.74 -61.22,-214.11 -183.67,-214.11 -214.28,0 -539.54,246.23 -975.75,738.69 -260.21,299.76 -489.79,635.21 -688.78,1006.34 130.11,0 319.52,-42.83 568.25,-128.47 248.71,-85.65 464.91,-199.84 648.59,-342.58 420.91,-335.45 631.36,-688.74 631.36,-1059.87z"/>
  <path id="_6" class="fil0" d="M24259.56 8433c-7.66,28.55 -42.1,126.69 -103.31,294.41 -61.23,167.72 -112.89,328.31 -154.98,481.75 -42.1,153.45 -63.14,306.9 -63.14,460.35 0,153.45 38.26,296.19 114.79,428.23 76.54,132.03 198.98,198.05 367.35,198.05 275.5,0 543.36,-173.07 803.57,-519.22 260.2,-346.15 535.7,-786.87 826.51,-1322.16 61.23,-99.92 118.63,-139.17 172.2,-117.76 38.27,28.55 45.91,66.02 22.95,112.41 -22.95,46.39 -70.79,146.31 -143.49,299.76 -72.7,153.45 -126.27,260.5 -160.71,321.17 -34.44,60.67 -95.66,167.72 -183.67,321.17 -88.01,153.45 -164.54,267.64 -229.59,342.58 -65.05,74.94 -153.06,171.29 -264.02,289.06 -110.97,117.76 -216.21,205.19 -315.69,262.29 -267.86,157.01 -520.41,235.52 -757.65,235.52 -237.24,0 -420.91,-48.17 -551.01,-144.53 -130.1,-96.35 -208.55,-199.83 -235.34,-310.46 -26.78,-110.63 -40.18,-208.76 -40.18,-294.41 0,-85.64 3.83,-196.27 11.49,-331.87 22.96,-228.39 70.79,-449.64 143.49,-663.76 72.7,-214.11 112.88,-335.44 120.54,-363.99 176.01,-592.38 426.64,-1238.29 751.9,-1937.73 325.25,-699.44 600.76,-1225.8 826.52,-1579.09 225.77,-353.29 403.7,-594.16 533.8,-722.63 260.2,-256.94 516.57,-385.41 769.13,-385.41 176.01,0 294.64,117.77 355.85,353.29 7.66,42.82 11.49,96.35 11.49,160.59 0,242.66 -91.84,549.55 -275.51,920.69 -658.16,1363.19 -1442.58,2433.76 -2353.29,3211.7zm91.83 -342.58c390.31,-371.13 776.78,-838.61 1159.43,-1402.45 382.65,-563.83 663.89,-1043.8 843.75,-1439.91 179.84,-396.11 269.76,-665.54 269.76,-808.28 0,-142.74 -26.79,-214.11 -80.36,-214.11 -76.53,0 -221.94,140.95 -436.22,422.87 -214.28,281.92 -503.18,788.65 -866.7,1520.21 -363.51,731.55 -660.06,1372.11 -889.66,1921.67z"/>
 </g>
</svg>
