<?xml version="1.0" encoding="UTF-8"?>
<!DOCTYPE svg PUBLIC "-//W3C//DTD SVG 1.1//EN" "http://www.w3.org/Graphics/SVG/1.1/DTD/svg11.dtd">
<!-- Creator: CorelDRAW 2021 (64-Bit) -->
<svg xmlns="http://www.w3.org/2000/svg" xml:space="preserve" width="210mm" height="297mm" version="1.1" style="shape-rendering:geometricPrecision; text-rendering:geometricPrecision; image-rendering:optimizeQuality; fill-rule:evenodd; clip-rule:evenodd"
viewBox="0 0 21000 29700"
 xmlns:xlink="http://www.w3.org/1999/xlink"
 xmlns:xodm="http://www.corel.com/coreldraw/odm/2003">
 <defs>
  <style type="text/css">
   <![CDATA[
    .fil0 {fill:#2B2A29;fill-rule:nonzero}
   ]]>
  </style>
 </defs>
 <g id="Layer_x0020_1">
  <metadata id="CorelCorpID_0Corel-Layer"/>
  <path class="fil0" d="M7686.62 8035.84c0,208.68 -67.76,426.95 -203.28,654.81 -135.52,227.86 -322.61,426.34 -561.26,595.44 -238.66,169.1 -485.11,275.24 -739.36,318.41 -146.31,295.02 -251.85,501.3 -316.61,618.83l-75.55 122.32c474.91,117.53 868.28,296.23 1180.09,536.08 158.3,122.33 265.04,272.24 320.21,449.73 28.78,91.15 43.17,169.1 43.17,233.86 0,64.76 -12.59,119.33 -37.78,163.7 -25.18,44.38 -54.56,74.96 -88.14,91.75 -33.58,16.79 -57.57,25.18 -71.96,25.18 -14.39,0 -21.59,-5.99 -21.59,-17.98 0,-12 13.79,-47.38 41.38,-106.14 27.58,-58.77 41.37,-127.72 41.37,-206.88 0,-79.15 -16.79,-166.7 -50.37,-262.64 -33.58,-95.94 -95.94,-184.09 -187.08,-264.44 -91.15,-80.35 -217.67,-155.91 -379.58,-226.66 -161.9,-70.76 -302.22,-121.13 -420.94,-151.11 -118.73,-29.99 -277.64,-64.17 -476.72,-102.54 -203.88,285.43 -416.15,480.91 -636.82,586.45 -131.92,64.76 -248.85,97.14 -350.79,97.14 -101.93,0 -192.48,-20.39 -271.63,-61.17 -136.72,-67.16 -205.08,-169.09 -205.08,-305.81 0,-136.72 89.95,-256.65 269.84,-359.79 203.88,-119.92 479.71,-179.89 827.5,-179.89 124.73,0 237.46,9.6 338.2,28.78 107.93,-167.89 233.86,-399.36 377.77,-694.38 -14.39,0 -27.58,0 -39.57,0 -151.11,0 -291.43,-25.18 -420.95,-75.55 -129.52,-50.37 -232.66,-118.73 -309.42,-205.08 -100.74,-112.73 -151.1,-239.86 -151.1,-381.37 0,-74.36 18.58,-154.71 55.76,-241.06 37.18,-86.34 119.93,-173.89 248.25,-262.64 128.33,-88.75 290.83,-155.91 487.51,-201.48 31.18,-7.19 57.57,-10.79 79.15,-10.79 21.59,0 34.78,5.99 39.58,17.99 4.8,11.99 -4.8,22.78 -28.78,32.38 -23.99,9.59 -51.57,16.79 -82.75,21.59 -103.14,11.99 -199.08,46.77 -287.83,104.33 -153.51,98.34 -260.25,249.45 -320.21,453.33 -14.39,47.97 -21.59,94.14 -21.59,138.52 0,44.37 8.4,97.74 25.19,160.1 16.79,62.36 52.77,126.53 107.93,192.49 55.17,65.96 130.13,112.13 224.87,138.51 94.74,26.39 177.49,39.58 248.25,39.58 70.76,0 136.12,-3.6 196.08,-10.79l305.82 -769.94c211.07,-542.08 462.92,-875.48 755.54,-1000.2 76.76,-31.18 151.71,-46.77 224.87,-46.77 73.16,0 142.71,23.38 208.67,70.15 65.97,46.78 101.34,103.74 106.14,170.9 2.4,28.78 3.6,56.37 3.6,82.75zm-151.11 3.6c0,-91.15 -41.98,-136.72 -125.92,-136.72 -122.33,0 -271.04,106.74 -446.14,320.21 -136.72,170.3 -268.04,375.97 -393.96,617.03 -125.93,241.05 -238.06,463.52 -336.4,667.4 333.4,-74.36 633.82,-257.25 901.26,-548.67 267.44,-291.43 401.16,-597.84 401.16,-919.25zm-1993.2 2446.53c-117.53,-26.38 -238.66,-39.58 -363.39,-39.58 -124.72,0 -253.04,17.99 -384.96,53.97 -275.84,71.96 -437.74,173.9 -485.71,305.82 -9.6,23.98 -14.39,46.77 -14.39,68.36 0,62.36 34.17,113.33 102.53,152.91 68.36,39.57 143.32,59.36 224.87,59.36 112.73,0 235.06,-31.18 366.98,-93.54 199.08,-95.95 383.77,-265.04 554.07,-507.3z"/>
  <path id="_1" class="fil0" d="M7495.93 9370.64c-33.58,28.78 -70.76,43.17 -111.53,43.17 -40.78,0 -73.16,-14.39 -97.14,-43.17 -23.99,-28.78 -33.58,-63.56 -28.79,-104.34 7.2,-40.77 27.59,-75.55 61.17,-104.33 33.58,-28.79 70.75,-43.18 111.53,-43.18 40.78,0 73.76,14.39 98.94,43.18 25.19,28.78 34.18,63.56 26.98,104.33 -7.19,40.78 -27.58,75.56 -61.16,104.34zm-352.59 1320.41c45.58,0 93.55,-22.79 143.92,-68.36 88.74,-88.75 201.48,-269.84 338.19,-543.28 16.79,-35.97 33.58,-46.77 50.37,-32.38 4.8,4.8 7.2,12.6 7.2,23.39 0,10.79 -9.6,37.18 -28.78,79.15 -19.19,41.98 -36.58,79.75 -52.17,113.33 -15.59,33.58 -45.58,88.15 -89.95,163.71 -44.37,75.55 -84.55,133.72 -120.53,174.49 -98.34,112.73 -191.28,169.1 -278.83,169.1 -87.55,0 -150.51,-26.38 -188.89,-79.15 -38.37,-52.77 -57.56,-111.54 -57.56,-176.3 0,-64.76 15.59,-135.52 46.77,-212.27l230.26 -586.45c4.8,-14.39 7.2,-33.58 7.2,-57.56 0,-23.99 -14.39,-55.17 -43.18,-93.55l197.89 -3.59c55.16,0 87.54,10.19 97.14,30.58 9.59,20.39 2.4,52.17 -21.59,95.34l-287.83 672.8c-40.77,88.74 -61.16,164.3 -61.16,226.66 0,69.56 37.18,104.34 111.53,104.34z"/>
  <path id="_2" class="fil0" d="M7826.93 10075.82c-2.4,9.59 -13.19,42.57 -32.38,98.94 -19.19,56.36 -35.38,110.33 -48.57,161.9 -13.2,51.57 -19.79,103.14 -19.79,154.71 0,51.57 11.99,99.54 35.98,143.91 23.98,44.37 62.36,66.56 115.13,66.56 86.35,0 170.3,-58.16 251.85,-174.49 81.55,-116.33 167.9,-264.45 259.04,-444.34 19.19,-33.58 37.18,-46.77 53.97,-39.57 11.99,9.59 14.39,22.18 7.19,37.77 -7.19,15.59 -22.18,49.17 -44.97,100.74 -22.78,51.57 -39.57,87.55 -50.37,107.94 -10.79,20.39 -29.98,56.36 -57.56,107.93 -27.59,51.57 -51.57,89.95 -71.96,115.13 -20.39,25.19 -47.97,57.57 -82.75,97.15 -34.78,39.57 -67.76,68.95 -98.94,88.14 -83.95,52.77 -163.1,79.16 -237.46,79.16 -74.35,0 -131.92,-16.19 -172.7,-48.58 -40.77,-32.38 -65.36,-67.15 -73.75,-104.33 -8.4,-37.18 -12.59,-70.16 -12.59,-98.94 0,-28.79 1.2,-65.96 3.59,-111.54 7.2,-76.75 22.19,-151.11 44.98,-223.06 22.78,-71.96 35.38,-112.73 37.77,-122.33 55.17,-199.08 133.72,-416.15 235.66,-651.21 101.94,-235.06 188.29,-411.95 259.05,-530.68 70.76,-118.73 126.52,-199.68 167.3,-242.85 81.55,-86.35 161.9,-129.53 241.05,-129.53 55.17,0 92.35,39.58 111.54,118.73 2.39,14.39 3.59,32.38 3.59,53.97 0,81.55 -28.78,184.69 -86.34,309.41 -206.28,458.13 -452.13,817.91 -737.56,1079.36zm28.78 -115.13c122.33,-124.73 243.45,-281.83 363.38,-471.32 119.93,-189.49 208.08,-350.79 264.44,-483.91 56.37,-133.12 84.55,-223.67 84.55,-271.64 0,-47.97 -8.39,-71.95 -25.18,-71.95 -23.99,0 -69.56,47.37 -136.72,142.11 -67.16,94.74 -157.7,265.04 -271.64,510.89 -113.93,245.86 -206.87,461.13 -278.83,645.82z"/>
  <path id="_3" class="fil0" d="M8550.09 10216.13c-33.58,81.55 -50.37,172.7 -50.37,273.44 0,67.16 14.99,120.53 44.98,160.1 29.98,39.58 72.55,59.37 127.72,59.37 218.27,0 416.15,-205.08 593.64,-615.23 16.79,-38.38 37.18,-55.17 61.17,-50.37 9.59,2.39 14.39,8.39 14.39,17.99 0,9.59 -26.99,72.55 -80.95,188.88 -53.97,116.33 -108.54,210.48 -163.71,282.43 -122.32,167.9 -273.43,251.85 -453.32,251.85 -95.95,0 -177.5,-31.18 -244.66,-93.54 -67.16,-62.37 -100.74,-147.51 -100.74,-255.45 0,-107.93 25.79,-222.47 77.36,-343.59 51.57,-121.13 121.72,-233.86 210.47,-338.2 88.75,-104.34 190.69,-180.49 305.82,-228.46 55.16,-23.99 107.93,-35.98 158.3,-35.98 50.37,0 97.14,14.39 140.32,43.17 40.77,33.58 61.16,70.76 61.16,111.54 0,143.91 -86.35,281.83 -259.04,413.75 -52.77,40.77 -127.13,77.35 -223.07,109.73 -95.94,32.38 -169.1,48.57 -219.47,48.57zm604.44 -575.65c0,-47.97 -19.19,-71.96 -57.57,-71.96 -67.16,0 -169.09,82.75 -305.81,248.25 -81.55,100.74 -153.51,213.47 -215.87,338.2 40.77,0 100.14,-14.39 178.09,-43.17 77.95,-28.79 145.71,-67.16 203.28,-115.14 131.92,-112.73 197.88,-231.46 197.88,-356.18z"/>
  <path id="_4" class="fil0" d="M9474.74 10075.82c-2.4,9.59 -13.19,42.57 -32.38,98.94 -19.19,56.36 -35.38,110.33 -48.57,161.9 -13.2,51.57 -19.79,103.14 -19.79,154.71 0,51.57 11.99,99.54 35.98,143.91 23.98,44.37 62.36,66.56 115.13,66.56 86.35,0 170.3,-58.16 251.85,-174.49 81.55,-116.33 167.9,-264.45 259.04,-444.34 19.19,-33.58 37.18,-46.77 53.97,-39.57 11.99,9.59 14.39,22.18 7.19,37.77 -7.19,15.59 -22.18,49.17 -44.97,100.74 -22.78,51.57 -39.57,87.55 -50.37,107.94 -10.79,20.39 -29.98,56.36 -57.56,107.93 -27.59,51.57 -51.57,89.95 -71.96,115.13 -20.39,25.19 -47.97,57.57 -82.75,97.15 -34.78,39.57 -67.76,68.95 -98.94,88.14 -83.95,52.77 -163.1,79.16 -237.46,79.16 -74.35,0 -131.92,-16.19 -172.7,-48.58 -40.77,-32.38 -65.36,-67.15 -73.75,-104.33 -8.4,-37.18 -12.59,-70.16 -12.59,-98.94 0,-28.79 1.2,-65.96 3.59,-111.54 7.2,-76.75 22.19,-151.11 44.98,-223.06 22.78,-71.96 35.38,-112.73 37.77,-122.33 55.17,-199.08 133.72,-416.15 235.66,-651.21 101.94,-235.06 188.29,-411.95 259.05,-530.68 70.76,-118.73 126.52,-199.68 167.3,-242.85 81.55,-86.35 161.9,-129.53 241.05,-129.53 55.17,0 92.35,39.58 111.54,118.73 2.39,14.39 3.59,32.38 3.59,53.97 0,81.55 -28.78,184.69 -86.34,309.41 -206.28,458.13 -452.13,817.91 -737.56,1079.36zm28.78 -115.13c122.33,-124.73 243.45,-281.83 363.38,-471.32 119.93,-189.49 208.08,-350.79 264.44,-483.91 56.37,-133.12 84.55,-223.67 84.55,-271.64 0,-47.97 -8.39,-71.95 -25.18,-71.95 -23.99,0 -69.56,47.37 -136.72,142.11 -67.16,94.74 -157.7,265.04 -271.64,510.89 -113.93,245.86 -206.87,461.13 -278.83,645.82z"/>
  <path id="_5" class="fil0" d="M10197.9 10216.13c-33.58,81.55 -50.37,172.7 -50.37,273.44 0,67.16 14.99,120.53 44.98,160.1 29.98,39.58 72.55,59.37 127.72,59.37 218.27,0 416.15,-205.08 593.64,-615.23 16.79,-38.38 37.18,-55.17 61.17,-50.37 9.59,2.39 14.39,8.39 14.39,17.99 0,9.59 -26.99,72.55 -80.95,188.88 -53.97,116.33 -108.54,210.48 -163.71,282.43 -122.32,167.9 -273.43,251.85 -453.32,251.85 -95.95,0 -177.5,-31.18 -244.66,-93.54 -67.16,-62.37 -100.74,-147.51 -100.74,-255.45 0,-107.93 25.79,-222.47 77.36,-343.59 51.57,-121.13 121.72,-233.86 210.47,-338.2 88.75,-104.34 190.69,-180.49 305.82,-228.46 55.16,-23.99 107.93,-35.98 158.3,-35.98 50.37,0 97.14,14.39 140.32,43.17 40.77,33.58 61.16,70.76 61.16,111.54 0,143.91 -86.35,281.83 -259.04,413.75 -52.77,40.77 -127.13,77.35 -223.07,109.73 -95.94,32.38 -169.1,48.57 -219.47,48.57zm604.44 -575.65c0,-47.97 -19.19,-71.96 -57.57,-71.96 -67.16,0 -169.09,82.75 -305.81,248.25 -81.55,100.74 -153.51,213.47 -215.87,338.2 40.77,0 100.14,-14.39 178.09,-43.17 77.95,-28.79 145.71,-67.16 203.28,-115.14 131.92,-112.73 197.88,-231.46 197.88,-356.18z"/>
  <path id="_6" class="fil0" d="M11122.55 10075.82c-2.4,9.59 -13.19,42.57 -32.38,98.94 -19.19,56.36 -35.38,110.33 -48.57,161.9 -13.2,51.57 -19.79,103.14 -19.79,154.71 0,51.57 11.99,99.54 35.98,143.91 23.98,44.37 62.36,66.56 115.13,66.56 86.35,0 170.3,-58.16 251.85,-174.49 81.55,-116.33 167.9,-264.45 259.04,-444.34 19.19,-33.58 37.18,-46.77 53.97,-39.57 11.99,9.59 14.39,22.18 7.19,37.77 -7.19,15.59 -22.18,49.17 -44.97,100.74 -22.78,51.57 -39.57,87.55 -50.37,107.94 -10.79,20.39 -29.98,56.36 -57.56,107.93 -27.59,51.57 -51.57,89.95 -71.96,115.13 -20.39,25.19 -47.97,57.57 -82.75,97.15 -34.78,39.57 -67.76,68.95 -98.94,88.14 -83.95,52.77 -163.1,79.16 -237.46,79.16 -74.35,0 -131.92,-16.19 -172.7,-48.58 -40.77,-32.38 -65.36,-67.15 -73.75,-104.33 -8.4,-37.18 -12.59,-70.16 -12.59,-98.94 0,-28.79 1.2,-65.96 3.59,-111.54 7.2,-76.75 22.19,-151.11 44.98,-223.06 22.78,-71.96 35.38,-112.73 37.77,-122.33 55.17,-199.08 133.72,-416.15 235.66,-651.21 101.94,-235.06 188.29,-411.95 259.05,-530.68 70.76,-118.73 126.52,-199.68 167.3,-242.85 81.55,-86.35 161.9,-129.53 241.05,-129.53 55.17,0 92.35,39.58 111.54,118.73 2.39,14.39 3.59,32.38 3.59,53.97 0,81.55 -28.78,184.69 -86.34,309.41 -206.28,458.13 -452.13,817.91 -737.56,1079.36zm28.78 -115.13c122.33,-124.73 243.45,-281.83 363.38,-471.32 119.93,-189.49 208.08,-350.79 264.44,-483.91 56.37,-133.12 84.55,-223.67 84.55,-271.64 0,-47.97 -8.39,-71.95 -25.18,-71.95 -23.99,0 -69.56,47.37 -136.72,142.11 -67.16,94.74 -157.7,265.04 -271.64,510.89 -113.93,245.86 -206.87,461.13 -278.83,645.82z"/>
 </g>
</svg>
